<svg width="61" height="21" viewBox="0 0 61 21" fill="none" xmlns="http://www.w3.org/2000/svg">

<path d="M58.1945 7.86639H60.9933C60.6393 5.10774 58.6498 3.65771 55.8846 3.65771C53.0859 3.65771 51.2144 5.16082 51.2144 7.74261C51.2144 10.6781 53.6254 11.3323 54.9068 11.5976C56.5591 11.9336 58.1776 11.969 58.1776 13.4543C58.1776 14.4623 57.3683 14.9574 56.2219 14.9574C54.8056 14.9574 53.8615 14.2147 53.6254 12.8709H50.8604C51.0289 15.7709 53.0354 17.327 55.9859 17.327C58.7172 17.327 60.9595 16.0185 60.9595 13.1891C60.9595 10.1475 58.38 9.59938 56.5759 9.31642C55.3451 9.12193 53.9963 8.94507 53.9963 7.58343C53.9963 6.62854 54.6876 6.04501 55.8509 6.04501C57.1998 6.04501 58.009 6.84081 58.1945 7.86639Z" fill="#403F41"/>
<path d="M49.3258 4.09979H46.6787V16.9202H49.3258V4.09979Z" fill="#403F41"/>
<path d="M38.6875 12.4464H42.1439C41.6043 13.8258 40.3904 14.4799 38.991 14.4799C36.5295 14.4799 35.383 12.4817 35.383 10.5012C35.383 8.50294 36.462 6.46938 38.9742 6.46938C40.5085 6.46938 41.6549 7.21208 42.0933 8.53833L44.9426 8.53834C44.4537 5.54989 41.9584 3.83459 39.0079 3.83459C35.3661 3.83459 32.6348 6.43399 32.6348 10.5366C32.6348 14.6922 35.6021 17.1502 38.991 17.1502C42.3293 17.1502 44.9426 14.869 44.9426 11.297V10.2536H38.6875V12.4464Z" fill="#403F41"/>
<path d="M26.5817 3.83459C23.5469 3.83459 21.3045 5.83277 21.3214 9.15726H24.0527C24.019 7.70723 24.8957 6.38099 26.4468 6.38099C27.7957 6.38099 28.5881 7.37127 28.5881 8.50295C28.5881 9.63471 27.7957 10.2713 26.3288 10.961C24.3225 11.8982 22.8894 12.4994 21.4225 13.03V16.9203H31.6398V14.3031H24.6255C24.6255 14.3031 24.6489 14.2955 24.6604 14.2918C25.8534 13.9127 26.7497 13.5008 27.8126 13.0123C30.0886 11.9513 31.3869 10.625 31.3869 8.36154C31.3869 5.58519 29.4311 3.83459 26.5817 3.83459Z" fill="#403F41"/>
<path d="M14.1388 12.411C10.6993 12.4287 10.1429 14.6038 9.95752 16.4428L9.87323 17.2563H9.18191L9.09762 16.4428C8.91219 14.6038 8.33895 12.4287 5.01747 12.411C4.4611 11.2085 4.22506 10.2359 4.22506 9.13955C4.22506 6.39867 6.36631 3.8345 9.53596 3.8345C12.7057 3.8345 14.8132 6.38089 14.8132 9.15732C14.8132 10.2359 14.712 11.2085 14.1388 12.411ZM9.5023 0.51001C4.27568 0.51001 -0.00683594 5.00164 -0.00683594 10.5011C-0.00683594 16.0184 4.27568 20.51 9.5023 20.51C14.7795 20.51 19.0451 16.0184 19.0451 10.5011C19.0451 5.00166 14.7795 0.51001 9.5023 0.51001Z" fill="#29B24A"/>

</svg>
