<svg width="93" height="13" viewBox="0 0 93 13" fill="none" xmlns="http://www.w3.org/2000/svg">
<path d="M2.69838 7.17372C2.79907 5.88321 3.66497 5.12409 4.7121 5.12409C5.7391 5.12409 6.70569 5.78832 6.74596 7.17372H2.69838ZM9.44434 8.72993C9.44434 5.0292 7.83337 3.16934 4.79265 3.16934C1.75194 3.16934 0 5.0292 0 7.91387C0 11.292 1.65125 13 4.95375 13C7.06815 13 8.69927 11.9182 9.30338 10.0015H6.605C6.42376 10.6467 5.67869 11.0453 4.83293 11.0453C3.54415 11.0453 2.69838 10.1343 2.61784 8.72993H9.44434Z" fill="#333333"/>
<path d="M12.9669 12.7533V0H10.3491V12.7533H12.9669Z" fill="#333333"/>
<path d="M16.5427 7.17372C16.6434 5.88321 17.5093 5.12409 18.5564 5.12409C19.5834 5.12409 20.55 5.78832 20.5903 7.17372H16.5427ZM23.2887 8.72993C23.2887 5.0292 21.6777 3.16934 18.637 3.16934C15.5963 3.16934 13.8443 5.0292 13.8443 7.91387C13.8443 11.292 15.4956 13 18.7981 13C20.9125 13 22.5436 11.9182 23.1477 10.0015H20.4493C20.2681 10.6467 19.523 11.0453 18.6772 11.0453C17.3885 11.0453 16.5427 10.1343 16.4622 8.72993H23.2887Z" fill="#333333"/>
<path d="M38.37 12.7533V6.28175C38.37 4.53577 36.9805 3.16934 34.987 3.16934C33.7384 3.16934 32.8524 3.62482 32.3087 4.64964C31.5435 3.56788 30.8991 3.16934 29.5499 3.16934C28.241 3.16934 27.3147 3.54891 26.6502 4.78248V3.41606H24.1934V12.7533H26.8113V7.07883C26.8113 5.86423 27.355 5.25693 28.4021 5.25693C29.5499 5.25693 29.9728 5.6365 29.9728 7.13577V12.7533H32.5906V7.17372C32.5906 6.03504 33.2954 5.18102 34.262 5.18102C35.1883 5.18102 35.8126 5.9781 35.8126 7.09781V12.7533H38.37Z" fill="#333333"/>
<path d="M41.8518 7.17372C41.9525 5.88321 42.8184 5.12409 43.8656 5.12409C44.8926 5.12409 45.8592 5.78832 45.8994 7.17372H41.8518ZM48.5978 8.72993C48.5978 5.0292 46.9868 3.16934 43.9461 3.16934C40.9054 3.16934 39.1535 5.0292 39.1535 7.91387C39.1535 11.292 40.8047 13 44.1072 13C46.2216 13 47.8527 11.9182 48.4568 10.0015H45.7585C45.5772 10.6467 44.8322 11.0453 43.9864 11.0453C42.6976 11.0453 41.8518 10.1343 41.7713 8.72993H48.5978Z" fill="#333333"/>
<path d="M58.4838 12.7533V6.28175C58.4838 4.2511 57.0943 3.16934 55.2014 3.16934C53.6105 3.16934 52.6037 3.73869 51.9996 4.78248V3.41606H49.5026V12.7533H52.1204V7.40146C52.1204 5.9781 52.7849 5.25693 54.1543 5.25693C55.4028 5.25693 55.8458 5.65547 55.8458 7.09781V12.7533H58.4838Z" fill="#333333"/>
<path d="M65.2484 9.03358C65.2484 10.1912 64.7651 10.8555 63.718 10.8555C62.6507 10.8555 62.2077 10.1723 62.2077 8.99562V5.16204H67.685V3.41606H62.2077V0.891972H59.6302V9.24234C59.6302 11.254 60.778 13 63.6777 13C66.4768 13 67.685 11.235 67.685 9.26131V6.60438H65.2484V9.03358Z" fill="#333333"/>
<path d="M77.6756 12.7533V3.41606H75.0779V8.80584C75.0779 10.0394 74.3731 10.9314 73.044 10.9314C71.9365 10.9314 71.3727 10.362 71.3727 9.1854V3.41606H68.7548V9.56496C68.7548 11.6146 70.1443 13 72.1177 13C73.4871 13 74.5141 12.5066 75.1987 11.4438V12.7533H77.6756Z" fill="#B7E31B"/>
<path d="M93 12.7533V6.28175C93 4.53577 91.6105 3.16934 89.617 3.16934C88.3684 3.16934 87.4824 3.62482 86.9387 4.64964C86.1735 3.56788 85.5291 3.16934 84.1799 3.16934C82.871 3.16934 81.9447 3.54891 81.2802 4.78248V3.41606H78.8234V12.7533H81.4413V7.07883C81.4413 5.86423 81.985 5.25693 83.0321 5.25693C84.1799 5.25693 84.6028 5.6365 84.6028 7.13577V12.7533H87.2206V7.17372C87.2206 6.03504 87.9254 5.18102 88.892 5.18102C89.8183 5.18102 90.4426 5.9781 90.4426 7.09781V12.7533H93Z" fill="#B7E31B"/>
</svg>
