<svg width="152" height="38" viewBox="0 0 152 38" fill="none" xmlns="http://www.w3.org/2000/svg">
<path d="M42.1598 34.0861C41.291 34.8794 39.9995 35.6513 39.8245 35.5199C39.7096 35.4335 39.6674 35.1548 39.8867 34.6413C40.5066 33.3869 41.2805 32.1709 41.891 31.2452C42.2653 30.6292 42.6512 30.0015 43.0371 29.3737C43.4229 28.746 43.8098 28.1171 44.1894 27.4915C44.5974 26.7335 44.4994 26.0257 43.9248 25.6382C43.3512 25.289 42.6121 25.4727 42.2621 26.062C42.0133 26.4549 41.7645 26.8467 41.5146 27.2492C41.5157 26.8424 41.445 26.4196 41.2394 26.0022C40.8018 25.2036 39.8076 24.846 38.5814 25.0403C36.2018 25.4524 34.402 27.1915 33.5385 28.1961C33.0957 28.7331 32.6961 29.3299 32.3493 29.9694C29.394 33.1637 25.6774 35.3918 22.1475 36.0847C20.2465 36.4509 18.314 36.326 16.394 35.71C14.7208 35.2317 13.0581 34.6231 11.425 34.0157C15.482 31.2666 18.2971 27.5022 20.3119 24.4873C24.0506 23.1453 27.8325 20.8296 31.8748 17.4101C35.5355 14.2735 38.1238 11.2308 39.7876 8.10802C40.1418 7.46745 41.872 4.16747 41.2078 2.15182C40.5731 0.220518 38.4528 -0.309019 36.6942 0.160729C33.0198 1.09168 30.0687 4.52939 27.589 7.68097C24.8972 11.2329 22.8961 15.0026 20.9604 18.6485C19.9208 20.6065 18.8464 22.6296 17.6982 24.546C14.0344 25.4599 7.46803 25.6285 5.67988 20.5403C4.41046 16.8218 6.85338 12.4703 9.95101 10.4098C11.4028 9.4137 13.1087 9.03896 14.7493 9.35284C16.6882 9.75533 18.2244 11.0076 18.7547 12.6187C19.0141 13.4503 18.9824 14.3525 18.664 15.2268C18.4004 15.9485 17.8279 16.5699 17.208 16.8101C16.9876 16.8955 16.6671 16.966 16.3961 16.8208C16.3761 16.809 16.3687 16.7738 16.3656 16.745C16.3434 16.5507 16.4784 16.2528 16.4984 16.2176L16.3982 15.798C15.6792 15.9101 14.8726 16.5293 14.7208 17.5008C14.667 17.9065 14.7935 18.3101 15.0677 18.6069C15.3386 18.9005 15.7182 19.0478 16.1104 19.0264C17.8943 18.9656 18.9645 16.7332 19.2492 16.05C19.673 15.0336 19.8206 13.8229 19.6361 12.8845C19.2312 11.0642 17.7446 9.43933 15.8542 8.74965C14.1061 8.05144 11.9447 8.12296 10.0712 8.94288C6.46535 10.5656 3.75785 14.266 3.48477 17.9418C3.334 20.0887 4.07414 22.1033 5.51225 23.4666C8.77753 26.772 13.9891 26.2616 17.1268 25.5453C15.0382 28.7641 13.0191 31.5751 10.0828 33.5011L9.66107 33.3538C8.03845 32.7847 6.36101 32.1965 4.63507 32.1965C3.62502 32.1965 2.56118 32.4399 1.63758 32.8829C0.978621 33.216 0.334423 33.6164 0.0824375 34.2783C-0.0388108 34.6007 -0.0261485 34.9029 0.119349 35.1751C0.434595 35.7623 1.29599 36.0271 1.78204 36.1328C4.51592 36.7221 7.77066 36.1722 10.3063 34.6968C10.8019 34.9498 11.2932 35.2167 11.7855 35.4836C13.0138 36.1498 14.2832 36.8384 15.6085 37.3082C16.8537 37.7694 18.1432 38 19.4653 38C20.1928 38 20.9287 37.9295 21.672 37.7897C23.4602 37.4021 25.2747 36.6014 27.2231 35.3406C28.948 34.1673 30.3154 33.0794 31.5501 31.8901C31.3729 32.4805 31.2696 33.0474 31.2422 33.5876C31.199 34.5217 31.3382 35.7965 32.2639 36.5673C32.9713 37.1053 33.9698 37.1662 34.9999 36.737C36.1248 36.2747 37.04 35.41 37.8466 34.4342C37.6336 35.3032 37.6251 36.2961 38.515 36.8214C39.6832 37.4651 40.9136 36.5086 41.8604 35.5979C41.9447 35.5103 42.6669 34.6402 42.7376 34.5303C42.7977 34.4374 42.8293 34.2676 42.7935 34.1438C42.7323 33.9356 42.3738 33.895 42.2125 34.0338C42.2136 34.0338 42.1735 34.0733 42.1598 34.0861ZM25.3843 16.0905C27.5394 12.261 29.5742 8.64395 32.2312 5.34291V5.34184C33.3329 3.96996 34.8343 2.28954 36.6899 1.47069C37.1876 1.25503 37.7243 1.1472 38.2314 1.1472C38.7818 1.1472 39.2963 1.27318 39.6906 1.52407C40.2051 1.85076 40.4803 2.35894 40.5098 3.03474C40.5973 4.98633 39.5483 6.8429 38.6225 8.48061L38.5298 8.64608C37.4396 10.4215 36.1891 12.0518 34.8101 13.4941C32.0741 16.4492 28.8457 19.0521 25.2146 21.2289C23.7944 22.083 22.4027 22.8004 21.0679 23.3673C22.6325 20.9791 24.0295 18.4969 25.3843 16.0905ZM3.741 35.5605C2.25122 35.5594 0.89217 35.1794 0.771976 34.7288C0.706607 34.4844 1.04505 34.1224 1.69241 33.7413C2.52006 33.2982 3.37193 33.0516 4.21962 33.0089C4.28288 33.0068 4.34508 33.0068 4.40834 33.0068C6.12691 33.0068 7.81702 33.6057 9.05797 34.1385C7.41531 34.9829 5.58713 35.473 3.741 35.5605ZM40.707 28.225C40.4054 29.2275 39.3859 30.8919 38.7775 31.8869L38.6721 32.0598C37.8866 33.3143 36.6604 35.0577 35.0873 35.7142C34.751 35.8274 34.2555 35.9438 33.7969 35.8498C33.0936 35.6918 33.0409 34.9392 33.1189 34.3445C33.5997 31.5687 35.6029 28.7299 37.2667 27.262C38.1418 26.4399 38.9209 26.0396 39.6494 26.0396C39.9889 26.0396 40.2589 26.1645 40.4507 26.41C40.8124 26.8755 40.8388 27.6634 40.707 28.225Z" fill="#2B5DAA"/>
<path d="M88.678 1.72222C89.6238 1.19482 90.6117 0.919378 91.5574 0.919378H91.646L91.7092 0.856393C91.841 0.721874 91.7999 0.584148 91.7831 0.544647C91.705 0.354612 91.4773 0.295898 90.8088 0.295898C89.7872 0.295898 88.6559 0.674904 87.4445 1.42116C83.4876 0.643943 79.4948 1.62186 76.8305 2.58485C73.1393 3.99836 69.584 6.34176 66.5476 9.36737C64.1258 11.9158 61.7409 16.136 62.9903 19.6399C63.5839 21.3075 65.2529 22.3303 67.274 22.295C69.1581 22.2022 70.9874 21.3203 72.4234 19.8139C73.3343 18.8904 74.8156 17.0595 74.4951 15.172C74.337 14.1556 73.5821 13.4339 72.5636 13.3314C71.7897 13.2812 70.9705 13.5716 70.107 14.1994C69.8434 14.4673 69.9584 14.6552 69.9995 14.7065C70.0965 14.8261 70.3063 14.8794 70.6025 14.6809C71.4977 14.1374 72.2399 13.956 72.8609 14.1332C73.2278 14.2517 73.4925 14.494 73.6485 14.8506C73.9385 15.5125 73.7961 16.4136 73.5262 17.0136C72.5045 19.3303 70.2989 21.031 68.0331 21.2467C66.4495 21.4335 64.7394 20.7064 64.5254 18.9758C64.3177 16.9239 65.0599 14.9446 65.7199 13.6464C67.4606 10.2097 70.3579 7.1777 73.8752 5.10867C78.2254 2.53894 82.5186 1.55354 86.3248 2.24535C82.4522 5.35316 79.9039 9.72182 77.4368 13.9517C76.9813 14.7332 76.5269 15.5115 76.064 16.2823C74.8115 18.4324 73.6517 20.6819 72.5309 22.8566C71.7222 24.4249 70.8862 26.0466 70.0237 27.6149C68.2925 30.7623 66.0394 34.1626 62.4547 35.5291C60.9227 36.1409 58.7086 36.3811 57.0913 35.2259C55.9325 34.3452 55.4771 32.8729 55.9041 31.3815C56.1814 30.3982 56.8414 29.8996 57.3369 29.8527C57.4772 29.8388 57.7302 29.8526 57.8483 30.0918C57.8926 30.1921 57.8324 30.5786 57.7639 30.6352L57.8187 31.0644C58.6749 31.0131 59.3064 30.1356 59.4224 29.3114C59.4772 28.8705 59.3412 28.4605 59.0523 28.185C58.7708 27.916 58.3712 27.8093 57.9579 27.8851C57.0776 28.0345 55.5646 29.29 55.1144 31.5203C54.7991 33.2743 55.3906 34.9131 56.6938 35.9028C57.6501 36.6426 58.891 37.0227 60.2648 37.0227C60.9934 37.0227 61.7599 36.916 62.5401 36.6982C65.6356 35.8953 68.477 33.6501 71.2267 29.8377C73.4935 26.6605 75.6887 22.9837 77.7488 18.9107C78.4025 17.6595 79.0425 16.3517 79.6614 15.0855C81.8417 10.6272 84.0948 6.01828 87.591 2.51119C89.5879 3.11012 91.1125 4.29303 91.7778 5.75993C93.9223 11.2432 89.2959 15.8659 87.2083 17.5986C85.6943 18.8339 84.0021 19.7883 82.3067 20.3605C81.2271 20.7652 79.81 21.1741 78.4352 20.7417C78.0156 20.5719 77.7393 20.5538 77.5896 20.6872C77.5084 20.7588 77.4768 20.8666 77.5032 20.9755C77.577 21.2701 78.0641 21.4826 78.5006 21.583C80.1 21.9054 81.6783 21.4911 82.7221 21.1516C84.5588 20.5933 86.3711 19.7403 88.1108 18.615C90.1035 17.3691 94.7278 13.9389 94.6709 8.99905C94.674 5.41188 91.7324 2.69481 88.678 1.72222Z" fill="#2B5DAA"/>
<path d="M151.555 25.8248C151.082 25.2857 150.464 25.0775 150.033 24.9974C149.704 24.9323 148.487 24.7818 146.711 25.6807C144.933 26.6053 143.405 28.0658 142.41 29.7942C142.382 29.8433 142.354 29.8946 142.328 29.9458L142.317 29.9746C140.126 32.7045 138.385 34.5152 137 35.5049C136.388 35.9191 135.934 36.0696 135.67 35.9661C135.661 35.9607 135.642 35.9522 135.628 35.9031C135.539 35.5796 135.908 34.7383 136.135 34.3711C137.265 32.381 138.472 30.5223 139.725 28.8472C139.809 28.7341 139.892 28.6166 139.977 28.4981C140.175 28.2216 140.379 27.9355 140.607 27.6718C140.901 27.3142 140.949 26.7846 140.715 26.3704C140.487 26.0245 140.088 25.8014 139.672 25.8014C139.67 25.8014 139.669 25.8014 139.667 25.8014C139.321 25.8451 138.987 25.9946 138.691 26.1259L138.546 26.191C137.984 26.3885 136.927 26.6651 135.885 26.4035C136.276 25.6231 136.559 24.8224 136.285 24.1273C136.188 23.9053 136.015 23.7601 135.8 23.7195C135.542 23.6736 135.231 23.7836 135.002 24.0142C134.701 24.3206 134.485 24.8298 134.428 25.1779C134.324 25.8611 134.455 26.3832 134.829 26.7654C134.528 27.2426 134.294 27.5896 134.052 27.927L134.048 27.9238L133.541 28.5782C133.284 28.8867 133.038 29.1942 132.792 29.5027C132.546 29.8113 132.3 30.1198 132.046 30.423C130.935 31.6881 129.725 33.0098 128.422 34.0945C127.187 35.0831 125.862 35.9703 124.534 35.76C124.096 35.649 123.804 35.4397 123.641 35.1173C123.198 34.2472 123.797 32.7077 124.156 31.7853C124.993 31.812 126.012 31.718 126.737 31.5333C129.59 30.7454 130.91 29.2935 131.348 28.702C132.061 27.7038 132.111 26.5188 131.474 25.8238C131.001 25.2846 130.383 25.0764 129.952 24.9964C129.623 24.9312 128.405 24.7807 126.63 25.6796C124.852 26.6053 123.324 28.0658 122.33 29.7931L122.287 29.8807C120.609 31.9657 119.25 33.5362 118.011 34.8205C117.676 35.16 117.389 35.3383 116.899 35.5209C116.596 35.587 116.377 35.5678 116.3 35.4675C116.201 35.3372 116.255 35.0073 116.434 34.6422C117.174 33.1123 118.075 31.5494 118.945 30.0366C119.449 29.16 119.947 28.2942 120.403 27.4572C120.597 27.1433 120.996 26.3885 120.996 26.0618C120.996 25.686 120.808 25.3391 120.491 25.1341C120.158 24.9184 119.743 24.8907 119.385 25.0583C118.937 25.2601 118.586 25.986 118.329 26.5166L118.252 26.6747C117.957 27.2608 117.649 27.8586 117.338 28.4629L117.173 28.7917C116.267 29.9394 115.289 31.1202 114.494 32.0298C114.441 32.0885 114.355 32.1889 114.243 32.3191C112.288 34.6113 110.969 35.744 110.32 35.6447C110.238 35.634 110.118 35.5967 110.027 35.4109C110.008 35.3202 110.108 34.8792 110.631 33.834C111.04 32.9682 111.577 32.081 112.097 31.2216C112.907 29.8839 113.671 28.6209 114.015 27.3985C114.16 26.8583 114.277 26.1665 113.893 25.6092C113.64 25.2248 113.289 25.0081 112.85 24.9643C111.342 24.8095 109.296 26.8166 109.077 27.0398C108.785 27.3131 108.514 27.6067 108.257 27.9045C108.521 27.0376 108.542 26.3597 108.323 25.8483C108.15 25.4426 107.83 25.1587 107.354 24.9985C106.254 24.722 105.232 25.6102 104.681 26.0885C104.033 26.6618 103.44 27.3537 102.904 28.0519C103.212 27.1593 103.35 26.2444 102.943 25.5665C102.724 25.212 102.424 25.0102 102.052 24.9675C101.074 24.8544 100.008 25.89 99.798 26.1024C99.0906 26.8668 98.6593 27.3985 98.2387 27.9216L97.7315 28.575C97.4743 28.8835 97.2286 29.191 96.9829 29.4996C96.7362 29.8081 96.4905 30.1166 96.2364 30.4198C95.1252 31.6849 93.9159 33.0066 92.6127 34.0913C91.3781 35.0799 90.0538 35.9671 88.7243 35.7568C88.2868 35.6458 87.9948 35.4365 87.8313 35.1141C87.3885 34.244 87.9874 32.7045 88.3469 31.7821C89.183 31.8088 90.2025 31.7148 90.9279 31.5301C93.7809 30.7422 95.101 29.2903 95.5385 28.6988C96.2512 27.7006 96.3019 26.5156 95.6661 25.8206C95.1927 25.2814 94.5749 25.0732 94.1436 24.9932C93.8147 24.928 92.5969 24.7775 90.8214 25.6764C89.0438 26.6021 87.5161 28.0625 86.5219 29.7899C86.4934 29.839 86.467 29.8892 86.4407 29.9405L86.4301 29.9693C84.2371 32.7013 82.4964 34.512 81.1121 35.5016C80.4995 35.9159 80.0461 36.0664 79.7815 35.9628C79.7731 35.9586 79.7541 35.949 79.7404 35.8999C79.6507 35.5774 80.0198 34.7362 80.2465 34.3678C81.3767 32.3778 82.5839 30.5191 83.8364 28.844C83.9197 28.7309 84.0041 28.6134 84.0884 28.4949C84.2867 28.2184 84.4912 27.9323 84.7189 27.6686C85.0131 27.311 85.0605 26.7814 84.8265 26.3672C84.5987 26.0213 84.2002 25.7981 83.7837 25.7981C83.7816 25.7981 83.7806 25.7981 83.7785 25.7981C83.4327 25.8419 83.0984 25.9914 82.8032 26.1227L82.6577 26.1878C82.0958 26.3853 81.0383 26.6618 79.9966 26.4003C80.3877 25.6199 80.6713 24.8191 80.3972 24.1241C80.3002 23.9021 80.1273 23.7569 79.9122 23.7163C79.6529 23.6704 79.3429 23.7804 79.1141 24.011C78.8125 24.3174 78.5964 24.8266 78.5395 25.1747C78.4362 25.8579 78.5669 26.38 78.9412 26.7622C78.626 27.2597 78.3877 27.612 78.1557 27.9259C77.9564 28.2077 77.8658 28.3327 78.0102 28.4437C78.1779 28.5718 78.3054 28.5387 78.5606 28.3892L78.7651 28.2259C78.9591 27.959 79.3418 27.5832 79.5833 27.1593C80.1653 27.4561 80.7873 27.564 81.3904 27.6697C81.4916 27.6868 81.5928 27.7049 81.6941 27.7231C80.7662 28.9679 79.9449 30.3205 79.3081 31.6508C79.247 31.7736 77.8299 34.6764 78.4709 36.1593C78.6407 36.5522 78.9359 36.8127 79.3303 36.928C80.1579 37.2408 81.0509 36.6717 81.7383 36.1358C83.0404 35.0863 84.5007 33.4465 85.651 32.0757C85.3399 33.5725 85.4791 35.2636 86.66 36.3184C88.0854 37.5974 90.0655 36.7956 91.1209 36.202C94.0456 34.5034 96.151 31.8152 98.1891 29.2156L98.7953 28.4415L98.8333 28.3924C99.2403 27.848 99.6409 27.4423 100.093 26.9843C100.16 26.9266 100.234 26.854 100.315 26.7782C100.566 26.5369 100.943 26.1761 101.157 26.2465C101.234 26.5006 100.943 27.407 99.8665 29.1227L99.3678 29.9383C98.3378 31.623 97.3657 33.2159 96.3588 34.8045C96.1595 35.1066 95.9951 35.3885 95.9951 35.7782C95.9951 36.234 96.2281 36.6408 96.6277 36.8725C96.8248 36.9707 97.0188 37.0198 97.2086 37.0198C97.6567 37.0198 98.0742 36.7465 98.4052 36.2201C99.6715 34.0668 101.046 31.9636 102.606 29.7921C102.764 29.5754 102.922 29.3469 103.082 29.1141C103.586 28.3871 104.107 27.6355 104.763 27.0462C105.956 26.0053 106.383 25.9796 106.51 26.0191C106.533 26.0255 106.583 26.0405 106.62 26.1419C106.605 26.7515 106.206 27.5586 105.945 28.0882C105.499 28.9006 105.039 29.6971 104.496 30.597C103.666 32.0447 102.808 33.5415 102.102 35.0639C101.902 35.4686 101.861 35.9052 101.991 36.2618C102.1 36.5607 102.32 36.7903 102.648 36.9312C103.29 37.15 103.925 36.8853 104.262 36.2586C104.702 35.4141 105.141 34.559 105.581 33.7038C106.03 32.8294 106.48 31.954 106.921 31.1063C107.733 29.8081 108.737 28.3252 110.048 27.1465C110.618 26.6586 111.57 25.8441 112.23 26.1195L112.277 26.1526C112.321 26.269 112.161 26.5914 112.073 26.7707C111.736 27.4497 111.326 28.1245 110.929 28.7768C110.663 29.2124 110.399 29.6458 110.16 30.075C109.698 30.8704 109.221 31.6935 108.791 32.5614C108.369 33.5223 108.023 34.3967 108.071 35.3693C108.132 36.1134 108.47 36.6355 109.05 36.8799C110.781 37.56 113.329 34.7767 115.363 32.2753L115.548 32.049C115.181 32.8348 114.811 33.6824 114.492 34.528C114.364 34.9518 114.138 36.0088 114.845 36.6579C115.632 37.2824 116.695 36.9002 117.201 36.5735C118.254 35.8753 119.329 34.6038 120.368 33.3739C120.692 32.9906 121.009 32.6148 121.319 32.2657C121.362 32.2134 121.407 32.1611 121.45 32.1088C121.149 33.5949 121.295 35.271 122.465 36.3173C123.892 37.5963 125.872 36.7945 126.926 36.2009C129.851 34.5024 131.956 31.8141 133.994 29.2145L134.616 28.4223L134.623 28.4095L134.624 28.4106L134.772 28.2056C134.967 27.9376 135.226 27.5832 135.468 27.1583C136.05 27.4551 136.672 27.5629 137.275 27.6686C137.377 27.6857 137.478 27.7038 137.579 27.722C136.651 28.9668 135.83 30.3195 135.193 31.6497C135.132 31.7725 133.715 34.6753 134.356 36.1582C134.526 36.5511 134.821 36.8116 135.215 36.9269C136.043 37.2397 136.936 36.6707 137.623 36.1347C138.925 35.0853 140.386 33.4454 141.535 32.0757C141.225 33.5725 141.364 35.2625 142.545 36.3173C143.971 37.5963 145.95 36.7945 147.006 36.2009C148.228 35.492 149.276 34.5109 150.265 33.5276C150.265 33.5276 150.265 33.5287 150.266 33.5287L150.333 33.4614C150.345 33.4497 150.358 33.438 150.37 33.4251L150.477 33.3184C150.606 33.1433 150.581 32.902 150.425 32.7654C150.274 32.633 150.055 32.6415 149.913 32.7835L149.752 32.9458C149.343 33.344 148.929 33.7326 148.5 34.0903C147.265 35.0789 145.94 35.9661 144.611 35.7557C144.174 35.6447 143.882 35.4355 143.718 35.113C143.276 34.2429 143.874 32.7034 144.234 31.781C145.071 31.8077 146.09 31.7138 146.815 31.5291C149.668 30.7412 150.988 29.2892 151.426 28.6978C152.141 27.7038 152.192 26.5188 151.555 25.8248ZM127.255 26.9266C128.129 26.1067 128.884 25.7223 129.583 25.7586C129.844 25.7586 130.072 25.8697 130.177 25.9754C130.36 26.1718 130.34 26.6309 130.122 27.2031C129.587 28.6038 127.777 30.754 125.581 30.9195C125.298 30.9515 124.903 30.9921 124.485 31.007C125.093 29.681 125.979 28.3754 127.255 26.9266ZM91.4488 26.9266C92.3228 26.1067 93.0788 25.7223 93.7767 25.7586C94.0382 25.7586 94.2659 25.8697 94.3703 25.9754C94.5538 26.1718 94.5337 26.6309 94.3155 27.2031C93.7809 28.6038 91.9707 30.754 89.7745 30.9195C89.4919 30.9515 89.0965 30.9921 88.679 31.007C89.2853 29.681 90.173 28.3754 91.4488 26.9266ZM79.3682 26.0362C79.1637 25.7255 79.2016 25.3167 79.3292 24.9932C79.3766 24.8501 79.6455 24.4498 79.7245 24.4145C79.9586 24.6526 79.7351 25.37 79.3682 26.0362ZM135.254 26.0362C135.05 25.7255 135.089 25.3167 135.215 24.9932C135.263 24.8501 135.531 24.4498 135.611 24.4145C135.845 24.6526 135.621 25.37 135.254 26.0362ZM150.203 27.2031C149.668 28.6038 147.858 30.754 145.662 30.9195C145.379 30.9515 144.984 30.9921 144.566 31.007C145.172 29.681 146.059 28.3754 147.336 26.9266C148.21 26.1067 148.962 25.7223 149.664 25.7586C149.925 25.7586 150.153 25.8697 150.257 25.9754C150.441 26.1718 150.421 26.6298 150.203 27.2031Z" fill="#2B5DAA"/>
<path d="M124.057 22.1508C126.027 22.5875 129.524 22.5778 131.527 22.5693C131.822 22.5405 131.933 22.3985 131.959 22.1796C131.985 21.9661 131.485 21.9832 131.172 21.9373C128.069 21.6811 124.819 21.0405 123.355 19.9686C123.263 19.9014 122.995 19.6932 122.921 19.6334C122.699 19.454 122.393 19.1732 121.96 19.0868C121.451 18.9853 121.122 19.0227 120.782 19.3889C120.494 19.6868 120.539 20.1085 120.679 20.4127C120.964 21.032 122.03 21.727 124.057 22.1508Z" fill="#2B5DAA"/>
</svg>
