<svg width="95" height="20" viewBox="0 0 95 20" fill="none" xmlns="http://www.w3.org/2000/svg">
<path d="M93.7602 13.3643C93.4677 13.3643 93.2302 13.6011 93.2302 13.8928C93.2302 14.1844 93.4677 14.4213 93.7602 14.4213C94.0526 14.4213 94.2902 14.1844 94.2902 13.8928C94.2902 13.6011 94.0526 13.3643 93.7602 13.3643ZM93.7602 14.3374C93.5137 14.3374 93.3142 14.1374 93.3142 13.8928C93.3142 13.6469 93.5148 13.4481 93.7602 13.4481C94.0067 13.4481 94.2073 13.6481 94.2073 13.8928C94.2073 14.1374 94.0067 14.3374 93.7602 14.3374ZM93.9327 13.8022C93.9327 13.7062 93.8644 13.6492 93.7635 13.6492H93.5943V14.1307H93.6772V13.9564H93.768L93.8554 14.1307H93.945L93.8486 13.9386C93.9003 13.9151 93.9327 13.8681 93.9327 13.8022ZM93.7602 13.8816H93.6784V13.7218H93.7602C93.8162 13.7218 93.8498 13.7497 93.8498 13.8011C93.8498 13.8537 93.8151 13.8816 93.7602 13.8816ZM29.8973 8.01564V6.73742H27.9319V14.3419H29.8973V9.78215C29.8973 8.95644 30.4284 8.55083 31.2565 8.55083H32.3322V6.73745H31.4134C30.694 6.73742 30.0687 7.11172 29.8973 8.01564ZM34.1733 3.72961C33.501 3.72961 32.9855 4.25923 32.9855 4.92962C32.9855 5.58437 33.501 6.11399 34.1733 6.11399C34.8456 6.11399 35.3611 5.58437 35.3611 4.92962C35.361 4.2592 34.8456 3.72961 34.1733 3.72961ZM33.1928 14.3419H35.1538V6.73742H33.1928V14.3419ZM44.4945 10.5397C44.4945 12.7106 42.7297 14.4704 40.5525 14.4704C39.674 14.4704 38.8773 14.1833 38.2385 13.6983V16.5743H36.2776V6.73742H38.2385V7.38099C38.8773 6.89608 39.674 6.60893 40.5525 6.60893C42.7297 6.60893 44.4945 8.36872 44.4945 10.5397ZM42.5213 10.5397C42.5213 9.3609 41.5621 8.40445 40.3799 8.40445C39.1978 8.40445 38.2386 9.3609 38.2386 10.5397C38.2386 11.7184 39.1978 12.6749 40.3799 12.6749C41.5621 12.6749 42.5213 11.7196 42.5213 10.5397ZM78.5769 9.87263L77.4328 9.55978C76.6798 9.36424 76.3874 9.13407 76.3874 8.73743C76.3874 8.35083 76.7997 8.08044 77.3891 8.08044C77.9505 8.08044 78.3909 8.44692 78.3909 8.91619V8.95975H80.1983V8.91619C80.1983 7.53628 79.0699 6.6089 77.3891 6.6089C75.7251 6.6089 74.5161 7.53516 74.5161 8.81225C74.5161 9.80556 75.176 10.5542 76.328 10.8648L77.4239 11.1631C78.2564 11.3933 78.5657 11.648 78.5657 12.105C78.5657 12.5866 78.1186 12.9106 77.453 12.9106C76.7593 12.9106 76.2921 12.4726 76.2921 11.8223V11.7787H74.3737V11.8223C74.3737 13.3821 75.6332 14.4726 77.4373 14.4726C79.1752 14.4726 80.437 13.4078 80.437 11.9419C80.437 11.2223 80.1142 10.2816 78.5769 9.87263ZM51.4509 6.73742H53.4118V14.3419H51.4509V13.6983C50.8122 14.1832 50.0154 14.4704 49.1369 14.4704C46.9598 14.4704 45.1949 12.7106 45.1949 10.5396C45.1949 8.36866 46.9598 6.6089 49.1369 6.6089C50.0154 6.6089 50.8122 6.89605 51.4509 7.38096V6.73742ZM51.4509 10.5397C51.4509 9.35978 50.4917 8.40445 49.3095 8.40445C48.1273 8.40445 47.1682 9.3609 47.1682 10.5397C47.1682 11.7184 48.1273 12.6749 49.3095 12.6749C50.4928 12.6749 51.4509 11.7196 51.4509 10.5397ZM60.4925 4.03128H62.4535V14.343H60.4925V13.6994C59.8538 14.1844 59.0571 14.4715 58.1786 14.4715C56.0014 14.4715 54.2365 12.7117 54.2365 10.5408C54.2365 8.36978 56.0013 6.61002 58.1786 6.61002C59.0571 6.61002 59.8538 6.89717 60.4925 7.38208V4.03128ZM60.4925 10.5397C60.4925 9.3609 59.5333 8.40445 58.3511 8.40445C57.169 8.40445 56.2098 9.3609 56.2098 10.5397C56.2098 11.7184 57.1678 12.6749 58.3511 12.6749C59.5333 12.6749 60.4925 11.7196 60.4925 10.5397ZM71.5578 14.3419H73.5187V6.73742H71.5578V14.3419ZM72.5383 3.72961C71.866 3.72961 71.3505 4.25923 71.3505 4.92962C71.3505 5.58437 71.866 6.11399 72.5383 6.11399C73.2106 6.11399 73.7261 5.58437 73.7261 4.92962C73.7261 4.2592 73.2106 3.72961 72.5383 3.72961ZM88.9127 10.5397C88.9127 12.7106 87.1479 14.4704 84.9706 14.4704C82.7935 14.4704 81.0286 12.7106 81.0286 10.5397C81.0286 8.36869 82.7934 6.60893 84.9706 6.60893C87.1479 6.60893 88.9127 8.36872 88.9127 10.5397ZM87.112 10.5397C87.112 9.3609 86.1528 8.40445 84.9707 8.40445C83.7885 8.40445 82.8293 9.3609 82.8293 10.5397C82.8293 11.7184 83.7874 12.6749 84.9707 12.6749C86.1528 12.6749 87.112 11.7196 87.112 10.5397ZM28.8933 4.03128H21.3711V5.77543H24.1557V14.3419H26.1099V5.77543H28.8944V4.03128H28.8933ZM66.9345 12.2592L65.1898 6.73745H63.1302L65.7467 14.3419H68.1065L70.7387 6.73745H68.6791L66.9345 12.2592ZM91.7858 8.01564V6.73742H89.8204V14.3419H91.7858V9.78215C91.7858 8.95644 92.3169 8.55083 93.145 8.55083H94.2207V6.73745H93.3019C92.5825 6.73742 91.9583 7.11172 91.7858 8.01564Z" fill="black"/>
<path d="M10.0288 20C15.5676 20 20.0576 15.5228 20.0576 10C20.0576 4.47715 15.5676 0 10.0288 0C4.49005 0 0 4.47715 0 10C0 15.5228 4.49005 20 10.0288 20Z" fill="#34E0A1"/>
<path d="M16.2236 8.04918L17.4338 6.73632H14.7501C13.4066 5.82122 11.784 5.28827 10.0292 5.28827C8.27669 5.28827 6.65866 5.82237 5.31736 6.73632H2.62695L3.83714 8.04918C3.09535 8.72403 2.63033 9.69611 2.63033 10.7754C2.63033 12.8123 4.2865 14.4637 6.32925 14.4637C7.29964 14.4637 8.18372 14.0905 8.84373 13.4805L10.0293 14.7676L11.2148 13.4816C11.8748 14.0917 12.7578 14.4637 13.7281 14.4637C15.7709 14.4637 17.4293 12.8123 17.4293 10.7754C17.4304 9.69499 16.9654 8.72293 16.2236 8.04918ZM6.33034 13.2715C4.94758 13.2715 3.82707 12.1542 3.82707 10.7754C3.82707 9.39666 4.94761 8.27934 6.33034 8.27934C7.71308 8.27934 8.83361 9.39666 8.83361 10.7754C8.83361 12.1542 7.71308 13.2715 6.33034 13.2715ZM10.0304 10.7028C10.0304 9.06034 8.83251 7.6503 7.25142 7.04805C8.10639 6.69161 9.04428 6.49385 10.0292 6.49385C11.0142 6.49385 11.9532 6.69161 12.8082 7.04805C11.2282 7.65142 10.0304 9.06037 10.0304 10.7028ZM13.7293 13.2715C12.3465 13.2715 11.226 12.1542 11.226 10.7754C11.226 9.39666 12.3465 8.27934 13.7293 8.27934C15.112 8.27934 16.2325 9.39666 16.2325 10.7754C16.2325 12.1542 15.112 13.2715 13.7293 13.2715ZM13.7293 9.46592C13.0043 9.46592 12.4171 10.0514 12.4171 10.7743C12.4171 11.4972 13.0043 12.0827 13.7293 12.0827C14.4542 12.0827 15.0414 11.4972 15.0414 10.7743C15.0414 10.0525 14.4542 9.46592 13.7293 9.46592ZM7.64249 10.7754C7.64249 11.4983 7.05532 12.0838 6.33034 12.0838C5.60537 12.0838 5.0182 11.4983 5.0182 10.7754C5.0182 10.0525 5.60537 9.46705 6.33034 9.46705C7.05532 9.46592 7.64249 10.0525 7.64249 10.7754Z" fill="black"/>
</svg>
