<svg width="120" height="20" viewBox="0 0 120 20" fill="none" xmlns="http://www.w3.org/2000/svg">
<g clip-path="url(#clip0_501_1535)">
<path d="M7.98005 0C3.57267 0 0 3.57267 0 7.98005C0 10.1829 0.892569 12.1776 2.33616 13.6215C3.78015 15.0663 7.18204 17.1571 7.38155 19.3516C7.41145 19.6806 7.64968 19.9501 7.98005 19.9501C8.31042 19.9501 8.54864 19.6806 8.57855 19.3516C8.77806 17.1571 12.18 15.0663 13.6239 13.6215C15.0675 12.1776 15.9601 10.1829 15.9601 7.98005C15.9601 3.57267 12.3874 0 7.98005 0Z" fill="url(#paint0_linear_501_1535)"/>
<path d="M7.98052 10.7735C9.52306 10.7735 10.7735 9.523 10.7735 7.98046C10.7735 6.43791 9.52306 5.18744 7.98052 5.18744C6.43797 5.18744 5.1875 6.43791 5.1875 7.98046C5.1875 9.523 6.43797 10.7735 7.98052 10.7735Z" fill="white"/>
<path d="M29.8796 14.7647H31.987V2.66003H28.9217C25.8389 2.66003 24.2191 4.24496 24.2191 6.57882C24.2191 8.44241 25.1073 9.53966 26.6923 10.6717L23.9404 14.7647H26.222L29.2874 10.1841L28.2249 9.47C26.9361 8.59916 26.3091 7.9199 26.3091 6.45689C26.3091 5.16805 27.2147 4.29722 28.939 4.29722H29.8796V14.7647ZM57.5548 14.1725V12.4831C56.9104 12.9185 55.8305 13.3017 54.8203 13.3017C53.3051 13.3017 52.7304 12.5876 52.6433 11.1246H57.6419V10.0273C57.6419 6.9794 56.3008 5.82989 54.2282 5.82989C51.7027 5.82989 50.501 7.76316 50.501 10.4105C50.501 13.4585 51.9989 14.9389 54.6462 14.9389C55.9699 14.9389 56.9452 14.5905 57.5548 14.1725ZM70.5129 14.9389C71.4708 14.9389 72.1501 14.7647 72.6551 14.3989V12.7095C72.1327 13.0752 71.5056 13.3017 70.6348 13.3017C69.1544 13.3017 68.5448 12.1521 68.5448 10.3409C68.5448 8.44241 69.2938 7.46707 70.6523 7.46707C71.4534 7.46707 72.2372 7.74574 72.6551 8.00699V6.24789C72.2197 6.00406 71.4534 5.82989 70.4258 5.82989C67.7784 5.82989 66.4025 7.72832 66.4025 10.3931C66.4025 13.3191 67.7436 14.9389 70.5129 14.9389ZM38.5706 6.00406V9.47H35.8013V6.00406H33.7287V14.7647H35.8013V11.1071H38.5706V14.7647H40.6431V6.00406H38.5706ZM49.9959 13.1275H49.0728V6.00406H43.0292V6.75298C43.0292 8.89525 42.8899 11.6646 42.1584 13.1275H41.514V16.7676H43.4298V14.7647H48.0801V16.7676H49.9959V13.1275ZM64.1732 14.7647H66.5245L63.1978 10.0447L66.1239 6.00406H64.0338L61.1078 10.0447V6.00406H59.0352V14.7647H61.1078V10.4628L64.1732 14.7647ZM54.1934 7.46707C55.2209 7.46707 55.5344 8.32049 55.5344 9.41775V9.59191H52.6433C52.6955 8.19858 53.2006 7.46707 54.1934 7.46707ZM47.0003 13.1275H44.0742C44.649 11.8038 44.8058 9.41775 44.8058 7.90249V7.64124H47.0003V13.1275Z" fill="black"/>
<path d="M83.3502 14.7647H85.8059L81.4866 8.39016L85.5273 2.66003H83.4373L79.5186 8.23341V2.66003H77.4111V14.7647H79.5186V9.08683L83.3502 14.7647Z" fill="black"/>
<path d="M92.7937 8.79071C92.7937 6.66586 91.7138 5.86469 89.5193 5.86469C88.1434 5.86469 87.0635 6.30011 86.4366 6.66586V8.39012C86.9939 7.97212 88.2131 7.51928 89.2755 7.51928C90.2682 7.51928 90.7211 7.86762 90.7211 8.80813V9.2958H90.3901C87.2203 9.2958 85.8096 10.3408 85.8096 12.1173C85.8096 13.8938 86.8894 14.8866 88.4918 14.8866C89.7109 14.8866 90.2334 14.486 90.634 14.068H90.7211C90.7384 14.2944 90.8082 14.5905 90.8778 14.7647H92.8981C92.8285 14.0506 92.7937 13.3364 92.7937 12.6224V8.79071ZM90.7211 12.6747C90.4598 13.0578 89.9722 13.3713 89.2407 13.3713C88.3698 13.3713 87.9344 12.8489 87.9344 12.065C87.9344 11.0375 88.6485 10.6717 90.425 10.6717H90.7211V12.6747Z" fill="black"/>
<path d="M96.3152 6.00407H94.3994V17.2901H96.4719V13.7371C96.9944 14.5209 97.7608 14.9389 98.6491 14.9389C100.669 14.9389 102.063 13.3191 102.063 10.3757C102.063 7.44966 100.704 5.8299 98.7535 5.8299C97.7783 5.8299 96.9771 6.28273 96.4198 7.13616L96.3152 6.00407ZM98.1266 13.3017C97.0293 13.3017 96.4719 12.4135 96.4719 10.3931C96.4719 8.35533 97.0642 7.46707 98.231 7.46707C99.3632 7.46707 99.9202 8.35533 99.9202 10.3757C99.9202 12.4135 99.3283 13.3017 98.1266 13.3017Z" fill="black"/>
<path d="M109.287 7.64121V6.00403H102.337V7.64121H104.775V14.7647H106.848V7.64121H109.287Z" fill="black"/>
<path d="M110.452 6.00403V14.7647H113.605C115.643 14.7647 117.089 13.7197 117.089 11.6645C117.089 9.71379 115.8 8.6862 113.64 8.6862H112.525V6.00403H110.452ZM117.855 6.00403V14.7647H119.927V6.00403H117.855ZM113.483 13.1275H112.525V10.3234H113.535C114.423 10.3234 114.946 10.724 114.946 11.7341C114.946 12.7443 114.371 13.1275 113.483 13.1275Z" fill="black"/>
</g>
<defs>
<linearGradient id="paint0_linear_501_1535" x1="7.98005" y1="0" x2="7.98005" y2="19.9501" gradientUnits="userSpaceOnUse">
<stop stop-color="#FF6122"/>
<stop offset="1" stop-color="#F22411"/>
</linearGradient>
<clipPath id="clip0_501_1535">
<rect width="120" height="19.9501" fill="white"/>
</clipPath>
</defs>
</svg>
