<svg width="131" height="78" viewBox="0 0 131 78" fill="none" xmlns="http://www.w3.org/2000/svg">
<rect width="131" height="78" rx="4" fill="white"/>
<path d="M17.965 14.785L16.75 14.605V13.855H21.055V14.605L19.57 14.785V24.115L23.44 23.98L24.325 21.46L25.24 21.595L24.715 25H16.72V24.265L17.965 24.115V14.785ZM26.1818 22.75C26.1818 21.81 26.6518 21.12 27.5918 20.68C28.5318 20.23 29.7218 19.99 31.1618 19.96V19.54C31.1618 19.07 31.1118 18.7 31.0118 18.43C30.9118 18.16 30.7368 17.965 30.4868 17.845C30.2468 17.715 29.9018 17.65 29.4518 17.65C28.9418 17.65 28.4818 17.725 28.0718 17.875C27.6718 18.015 27.2718 18.19 26.8718 18.4L26.4968 17.62C26.6268 17.51 26.8668 17.365 27.2168 17.185C27.5668 17.005 27.9718 16.845 28.4318 16.705C28.8918 16.565 29.3518 16.495 29.8118 16.495C30.5218 16.495 31.0818 16.595 31.4918 16.795C31.9118 16.985 32.2118 17.295 32.3918 17.725C32.5718 18.155 32.6618 18.73 32.6618 19.45V24.265H33.5468V24.925C33.3468 24.975 33.0918 25.025 32.7818 25.075C32.4818 25.125 32.2168 25.15 31.9868 25.15C31.7068 25.15 31.5168 25.105 31.4168 25.015C31.3168 24.935 31.2668 24.75 31.2668 24.46V23.965C30.9668 24.265 30.5968 24.54 30.1568 24.79C29.7268 25.04 29.2368 25.165 28.6868 25.165C27.9668 25.165 27.3668 24.96 26.8868 24.55C26.4168 24.13 26.1818 23.53 26.1818 22.75ZM29.3318 24.145C29.5918 24.145 29.8918 24.065 30.2318 23.905C30.5718 23.745 30.8818 23.555 31.1618 23.335V20.755C30.0718 20.755 29.2468 20.925 28.6868 21.265C28.1368 21.595 27.8618 22.03 27.8618 22.57C27.8618 23.11 27.9918 23.51 28.2518 23.77C28.5218 24.02 28.8818 24.145 29.3318 24.145ZM39.4396 14.785L38.2696 14.605V13.855H40.2646C40.6246 13.855 40.9796 13.84 41.3296 13.81C41.8696 13.77 42.3796 13.75 42.8596 13.75C44.3096 13.76 45.3346 14.03 45.9346 14.56C46.5346 15.09 46.8346 15.89 46.8346 16.96C46.8346 17.76 46.6496 18.455 46.2796 19.045C45.9096 19.635 45.3946 20.085 44.7346 20.395C44.0846 20.705 43.3346 20.86 42.4846 20.86C42.1946 20.86 41.8996 20.855 41.5996 20.845C41.2996 20.825 41.1146 20.81 41.0446 20.8V24.1L43.0996 24.265V25H38.1946V24.265L39.4396 24.115V14.785ZM41.0446 19.975C41.3246 20.025 41.8046 20.05 42.4846 20.05C43.2746 20.05 43.9146 19.81 44.4046 19.33C44.9046 18.85 45.1546 18.065 45.1546 16.975C45.1546 16.115 44.9396 15.5 44.5096 15.13C44.0796 14.75 43.4096 14.56 42.4996 14.56C42.1796 14.56 41.8396 14.58 41.4796 14.62C41.2596 14.64 41.1146 14.65 41.0446 14.65V19.975ZM47.9208 24.265L49.0458 24.175V17.83L47.9658 17.56V16.75L50.0358 16.48H50.0658L50.3958 16.75V17.02L50.3508 18.19H50.3958C50.4958 18.02 50.6758 17.8 50.9358 17.53C51.1958 17.26 51.5308 17.015 51.9408 16.795C52.3508 16.565 52.7958 16.45 53.2758 16.45C53.4758 16.45 53.6408 16.475 53.7708 16.525V18.205C53.7008 18.155 53.5858 18.11 53.4258 18.07C53.2758 18.02 53.1058 17.995 52.9158 17.995C52.0858 17.995 51.3158 18.25 50.6058 18.76V24.16L52.5108 24.28V25H47.9208V24.265ZM58.4509 25.165C57.2409 25.165 56.3159 24.77 55.6759 23.98C55.0459 23.19 54.7309 22.135 54.7309 20.815C54.7309 19.945 54.8959 19.18 55.2259 18.52C55.5559 17.86 56.0159 17.35 56.6059 16.99C57.2059 16.63 57.8859 16.45 58.6459 16.45C59.5759 16.45 60.2959 16.71 60.8059 17.23C61.3259 17.74 61.6009 18.475 61.6309 19.435C61.6309 20.045 61.5959 20.51 61.5259 20.83H56.3659C56.3859 21.82 56.6159 22.62 57.0559 23.23C57.4959 23.83 58.1209 24.13 58.9309 24.13C59.3309 24.13 59.7459 24.06 60.1759 23.92C60.6159 23.77 60.9559 23.595 61.1959 23.395L61.4809 24.055C61.1909 24.355 60.7609 24.615 60.1909 24.835C59.6209 25.055 59.0409 25.165 58.4509 25.165ZM59.9809 20.035C60.0109 19.825 60.0259 19.61 60.0259 19.39C60.0159 18.74 59.8759 18.23 59.6059 17.86C59.3459 17.48 58.9309 17.29 58.3609 17.29C57.7809 17.29 57.3159 17.5 56.9659 17.92C56.6259 18.34 56.4309 19.045 56.3809 20.035H59.9809ZM62.9051 24.265L63.8201 24.13V17.83L62.7401 17.56V16.75L64.8851 16.48L65.1551 16.675L65.2451 17.275L65.2301 17.755C65.5801 17.435 66.0551 17.145 66.6551 16.885C67.2651 16.615 67.8101 16.48 68.2901 16.48C68.8301 16.48 69.2651 16.57 69.5951 16.75C69.9251 16.93 70.1751 17.21 70.3451 17.59C70.6651 17.32 71.1101 17.07 71.6801 16.84C72.2601 16.6 72.8001 16.48 73.3001 16.48C73.9201 16.48 74.4051 16.6 74.7551 16.84C75.1051 17.07 75.3501 17.435 75.4901 17.935C75.6401 18.425 75.7151 19.085 75.7151 19.915V24.13L76.7951 24.265V25H73.2251V24.265L74.1551 24.13V19.96C74.1551 19.38 74.1101 18.92 74.0201 18.58C73.9401 18.23 73.7801 17.97 73.5401 17.8C73.3101 17.63 72.9751 17.545 72.5351 17.545C72.2051 17.545 71.8551 17.62 71.4851 17.77C71.1151 17.91 70.8001 18.08 70.5401 18.28C70.6301 18.67 70.6751 19.225 70.6751 19.945V24.13L71.7401 24.265V25H68.1101V24.265L69.1001 24.13V19.93C69.1001 19.33 69.0601 18.865 68.9801 18.535C68.9101 18.205 68.7701 17.96 68.5601 17.8C68.3501 17.63 68.0301 17.545 67.6001 17.545C67.2401 17.545 66.8551 17.635 66.4451 17.815C66.0451 17.995 65.6951 18.205 65.3951 18.445V24.13L66.4001 24.265V25H62.9051V24.265ZM79.6169 15.175C79.2969 15.175 79.0569 15.085 78.8969 14.905C78.7369 14.725 78.6569 14.495 78.6569 14.215C78.6569 13.895 78.7519 13.63 78.9419 13.42C79.1419 13.21 79.4119 13.105 79.7519 13.105C80.0919 13.105 80.3419 13.195 80.5019 13.375C80.6619 13.555 80.7419 13.785 80.7419 14.065C80.7419 14.405 80.6419 14.675 80.4419 14.875C80.2519 15.075 79.9819 15.175 79.6319 15.175H79.6169ZM79.0169 17.83L77.8769 17.56V16.765L80.2019 16.48H80.2319L80.5769 16.75V24.145L81.7769 24.265V25H77.8019V24.265L79.0169 24.13V17.83ZM86.532 25.165C85.322 25.165 84.397 24.77 83.757 23.98C83.127 23.19 82.812 22.135 82.812 20.815C82.812 19.945 82.977 19.18 83.307 18.52C83.637 17.86 84.097 17.35 84.687 16.99C85.287 16.63 85.967 16.45 86.727 16.45C87.657 16.45 88.377 16.71 88.887 17.23C89.407 17.74 89.682 18.475 89.712 19.435C89.712 20.045 89.677 20.51 89.607 20.83H84.447C84.467 21.82 84.697 22.62 85.137 23.23C85.577 23.83 86.202 24.13 87.012 24.13C87.412 24.13 87.827 24.06 88.257 23.92C88.697 23.77 89.037 23.595 89.277 23.395L89.562 24.055C89.272 24.355 88.842 24.615 88.272 24.835C87.702 25.055 87.122 25.165 86.532 25.165ZM88.062 20.035C88.092 19.825 88.107 19.61 88.107 19.39C88.097 18.74 87.957 18.23 87.687 17.86C87.427 17.48 87.012 17.29 86.442 17.29C85.862 17.29 85.397 17.5 85.047 17.92C84.707 18.34 84.512 19.045 84.462 20.035H88.062ZM91.0312 24.265L92.1562 24.175V17.83L91.0762 17.56V16.75L93.1462 16.48H93.1762L93.5062 16.75V17.02L93.4612 18.19H93.5062C93.6062 18.02 93.7862 17.8 94.0462 17.53C94.3062 17.26 94.6412 17.015 95.0512 16.795C95.4612 16.565 95.9062 16.45 96.3862 16.45C96.5862 16.45 96.7512 16.475 96.8812 16.525V18.205C96.8112 18.155 96.6962 18.11 96.5362 18.07C96.3862 18.02 96.2162 17.995 96.0262 17.995C95.1962 17.995 94.4262 18.25 93.7162 18.76V24.16L95.6212 24.28V25H91.0312V24.265ZM101.561 25.165C100.351 25.165 99.4263 24.77 98.7863 23.98C98.1563 23.19 97.8413 22.135 97.8413 20.815C97.8413 19.945 98.0063 19.18 98.3363 18.52C98.6663 17.86 99.1263 17.35 99.7163 16.99C100.316 16.63 100.996 16.45 101.756 16.45C102.686 16.45 103.406 16.71 103.916 17.23C104.436 17.74 104.711 18.475 104.741 19.435C104.741 20.045 104.706 20.51 104.636 20.83H99.4763C99.4963 21.82 99.7263 22.62 100.166 23.23C100.606 23.83 101.231 24.13 102.041 24.13C102.441 24.13 102.856 24.06 103.286 23.92C103.726 23.77 104.066 23.595 104.306 23.395L104.591 24.055C104.301 24.355 103.871 24.615 103.301 24.835C102.731 25.055 102.151 25.165 101.561 25.165ZM103.091 20.035C103.121 19.825 103.136 19.61 103.136 19.39C103.126 18.74 102.986 18.23 102.716 17.86C102.456 17.48 102.041 17.29 101.471 17.29C100.891 17.29 100.426 17.5 100.076 17.92C99.7363 18.34 99.5413 19.045 99.4913 20.035H103.091Z" fill="#333333"/>
<path d="M16.984 43.384C16.952 43.24 16.916 43.144 16.876 43.096C16.836 43.04 16.78 43.012 16.708 43.012C16.588 43.012 16.444 43.092 16.276 43.252L16.12 42.904C16.208 42.776 16.372 42.628 16.612 42.46C16.86 42.284 17.12 42.196 17.392 42.196C17.672 42.196 17.872 42.264 17.992 42.4C18.12 42.536 18.204 42.736 18.244 43L18.904 47.524L19.072 49.012L19.84 47.5L20.008 47.152C20.36 46.424 20.62 45.82 20.788 45.34C20.956 44.86 21.04 44.376 21.04 43.888C21.04 43.736 21.02 43.604 20.98 43.492C20.94 43.38 20.916 43.316 20.908 43.3C20.828 43.108 20.788 42.944 20.788 42.808C20.788 42.616 20.84 42.468 20.944 42.364C21.056 42.26 21.208 42.208 21.4 42.208C21.648 42.208 21.84 42.312 21.976 42.52C22.12 42.72 22.192 42.984 22.192 43.312C22.192 43.712 22.128 44.124 22 44.548C21.872 44.972 21.728 45.348 21.568 45.676C21.408 46.004 21.176 46.464 20.872 47.056C20.52 47.784 20.144 48.48 19.744 49.144C19.352 49.816 19.016 50.34 18.736 50.716C18.48 51.124 18.176 51.436 17.824 51.652C17.472 51.876 17.052 51.988 16.564 51.988C16.372 51.988 16.16 51.964 15.928 51.916C15.696 51.876 15.528 51.832 15.424 51.784L15.724 50.872C15.812 50.944 15.948 51.008 16.132 51.064C16.316 51.12 16.52 51.148 16.744 51.148C17.096 51.148 17.452 51.012 17.812 50.74C18.172 50.468 18.508 50.04 18.82 49.456H18.172L16.984 43.384ZM27.7156 48.052C27.7156 48.156 27.7316 48.232 27.7636 48.28C27.8036 48.328 27.8476 48.352 27.8956 48.352C28.0476 48.352 28.2356 48.256 28.4596 48.064L28.6156 48.388C28.5036 48.54 28.3076 48.7 28.0276 48.868C27.7556 49.036 27.4716 49.12 27.1756 49.12C26.9276 49.12 26.7316 49.064 26.5876 48.952C26.4436 48.84 26.3716 48.668 26.3716 48.436C26.3716 48.364 26.3756 48.312 26.3836 48.28L27.0916 42.988H25.8436C25.5636 44.188 25.2716 45.224 24.9676 46.096C24.6716 46.968 24.3396 47.656 23.9716 48.16C23.7876 48.472 23.5796 48.708 23.3476 48.868C23.1156 49.02 22.8516 49.096 22.5556 49.096C22.4756 49.096 22.3676 49.076 22.2316 49.036C22.0876 49.004 22.0076 48.976 21.9916 48.952L22.2796 47.692C22.3116 47.716 22.4276 47.756 22.6276 47.812C22.8356 47.86 22.9756 47.884 23.0476 47.884C23.1916 47.884 23.3516 47.748 23.5276 47.476C23.8396 47.052 24.1636 46.396 24.4996 45.508C24.8356 44.62 25.0796 43.82 25.2316 43.108L23.7916 42.904L23.8636 42.304H28.4356L27.7276 47.932L27.7156 48.052ZM29.4604 48.436C29.4604 48.156 29.5444 47.924 29.7124 47.74C29.8804 47.556 30.0804 47.464 30.3124 47.464C30.5364 47.464 30.7044 47.532 30.8164 47.668C30.9364 47.796 30.9964 47.96 30.9964 48.16C30.9964 48.448 30.9044 48.68 30.7204 48.856C30.5364 49.032 30.3244 49.12 30.0844 49.12C29.9084 49.12 29.7604 49.06 29.6404 48.94C29.5204 48.812 29.4604 48.644 29.4604 48.436ZM35.4906 49.948C35.6746 49.988 35.8666 50.008 36.0666 50.008C36.6746 50.008 37.2346 49.884 37.7466 49.636C38.2666 49.396 38.6746 49.072 38.9706 48.664C39.2746 48.256 39.4266 47.824 39.4266 47.368C39.4266 46.84 39.2906 46.424 39.0186 46.12C38.7546 45.816 38.3506 45.664 37.8066 45.664C37.3586 45.664 36.8346 45.788 36.2346 46.036L35.9586 45.832L36.9186 41.524H40.4706L40.6026 41.416H41.3346L41.0346 42.484H37.8186L37.1106 45.256C37.2866 45.176 37.5146 45.104 37.7946 45.04C38.0826 44.968 38.3466 44.932 38.5866 44.932C39.2826 44.932 39.8306 45.136 40.2306 45.544C40.6386 45.952 40.8426 46.492 40.8426 47.164C40.8426 47.844 40.6266 48.448 40.1946 48.976C39.7626 49.504 39.1986 49.912 38.5026 50.2C37.8066 50.496 37.0786 50.644 36.3186 50.644C36.1986 50.644 36.0386 50.632 35.8386 50.608C35.6466 50.584 35.5026 50.56 35.4066 50.536L35.4906 49.948ZM47.8014 44.704L47.6574 45.592H42.7374L42.8814 44.704H47.8014ZM51.2208 46.036C51.1408 46.692 51.1008 47.132 51.1008 47.356C51.1008 47.732 51.1648 47.992 51.2928 48.136C51.4208 48.28 51.6168 48.352 51.8808 48.352C52.1688 48.352 52.4648 48.252 52.7688 48.052C53.0728 47.844 53.3328 47.596 53.5488 47.308L54.2208 42.244H55.4688L54.7008 47.92L54.6888 48.052C54.6888 48.148 54.7048 48.224 54.7368 48.28C54.7768 48.328 54.8248 48.352 54.8808 48.352C55.0408 48.352 55.2448 48.232 55.4928 47.992L55.6488 48.316C55.5528 48.468 55.3728 48.64 55.1088 48.832C54.8448 49.016 54.5528 49.108 54.2328 49.108C53.9848 49.108 53.7968 49.044 53.6688 48.916C53.5408 48.788 53.4848 48.608 53.5008 48.376C53.5008 48.392 53.5128 48.256 53.5368 47.968L53.5248 47.956C52.8848 48.732 52.1648 49.12 51.3648 49.12C50.9088 49.12 50.5408 49 50.2608 48.76C49.9808 48.512 49.8368 48.108 49.8288 47.548C49.8288 47.172 49.9048 46.476 50.0568 45.46L50.3688 43.228L49.7328 42.88L49.8168 42.424L51.4488 42.196L51.7008 42.328L51.2928 45.508L51.2208 46.036ZM52.1328 39.052C52.2288 39.052 52.2768 39.136 52.2768 39.304C52.2768 39.384 52.2688 39.468 52.2528 39.556C52.2448 39.644 52.2408 39.724 52.2408 39.796C52.2408 40.076 52.3208 40.288 52.4808 40.432C52.6408 40.568 52.9008 40.636 53.2608 40.636C53.6768 40.636 53.9688 40.536 54.1368 40.336C54.3128 40.136 54.4288 39.844 54.4848 39.46C54.5168 39.188 54.5968 39.052 54.7248 39.052H55.5888C55.5888 39.132 55.5848 39.196 55.5768 39.244C55.3608 40.524 54.5528 41.164 53.1528 41.164C52.5128 41.164 52.0048 41.028 51.6288 40.756C51.2528 40.476 51.0648 40.052 51.0648 39.484C51.0648 39.324 51.0808 39.18 51.1128 39.052H52.1328ZM64.5395 47.872C64.5315 47.904 64.5275 47.948 64.5275 48.004C64.5275 48.124 64.5475 48.212 64.5875 48.268C64.6355 48.324 64.6955 48.352 64.7675 48.352C64.8955 48.352 65.0715 48.252 65.2955 48.052L65.4635 48.364C65.3755 48.508 65.2075 48.672 64.9595 48.856C64.7195 49.032 64.4475 49.12 64.1435 49.12C63.8955 49.12 63.6995 49.06 63.5555 48.94C63.4115 48.812 63.3435 48.616 63.3515 48.352L63.3995 48.004C63.1435 48.316 62.8435 48.58 62.4995 48.796C62.1635 49.012 61.7995 49.12 61.4075 49.12C60.7595 49.12 60.2755 48.892 59.9555 48.436C59.6355 47.972 59.4755 47.364 59.4755 46.612C59.4755 45.924 59.6275 45.24 59.9315 44.56C60.2355 43.872 60.6795 43.304 61.2635 42.856C61.8475 42.408 62.5315 42.184 63.3155 42.184C63.4995 42.184 63.7075 42.208 63.9395 42.256C64.1715 42.296 64.3835 42.344 64.5755 42.4L65.3075 42.196L64.5395 47.872ZM63.9515 43.036C63.7435 42.908 63.4875 42.844 63.1835 42.844C62.6715 42.844 62.2355 43.032 61.8755 43.408C61.5155 43.784 61.2435 44.256 61.0595 44.824C60.8835 45.384 60.7955 45.948 60.7955 46.516C60.7955 47.092 60.8795 47.54 61.0475 47.86C61.2235 48.172 61.4795 48.328 61.8155 48.328C62.0955 48.328 62.3755 48.224 62.6555 48.016C62.9435 47.8 63.1875 47.556 63.3875 47.284L63.9515 43.036ZM68.5965 43.12C68.8045 42.856 69.0645 42.636 69.3765 42.46C69.6965 42.276 70.0445 42.184 70.4205 42.184C71.0845 42.184 71.5845 42.412 71.9205 42.868C72.2645 43.324 72.4365 43.944 72.4365 44.728C72.4365 45.432 72.2805 46.124 71.9685 46.804C71.6565 47.484 71.2085 48.04 70.6245 48.472C70.0485 48.904 69.3845 49.12 68.6325 49.12C68.4885 49.12 68.2085 49.084 67.7925 49.012L67.3725 52.048H66.1605L67.3725 43.156L66.7365 42.88L66.8205 42.46L68.4405 42.184L68.6925 42.316L68.5965 43.12ZM67.9005 48.244C68.1245 48.388 68.4165 48.46 68.7765 48.46C69.2725 48.46 69.6965 48.276 70.0485 47.908C70.4005 47.532 70.6645 47.06 70.8405 46.492C71.0165 45.924 71.1045 45.348 71.1045 44.764C71.1045 44.212 71.0085 43.78 70.8165 43.468C70.6325 43.148 70.3725 42.988 70.0365 42.988C69.7245 42.988 69.4325 43.084 69.1605 43.276C68.8885 43.468 68.6685 43.692 68.5005 43.948L67.9005 48.244ZM81.1985 47.704C81.1985 47.904 81.2225 48.064 81.2705 48.184C81.3185 48.304 81.3825 48.364 81.4625 48.364C81.6545 48.364 81.8745 48.248 82.1225 48.016L82.3025 48.376C82.2625 48.44 82.1585 48.532 81.9905 48.652C81.8305 48.772 81.6345 48.88 81.4025 48.976C81.1785 49.072 80.9505 49.12 80.7185 49.12C80.2065 49.12 79.9465 48.864 79.9385 48.352L80.0825 44.74L80.1905 42.904L79.3865 44.728L77.3825 49.084H76.7105L75.7985 44.8L75.4745 43.132L75.0785 45.172C74.8145 46.516 74.4905 47.608 74.1065 48.448C73.9945 48.68 73.8545 48.848 73.6865 48.952C73.5265 49.048 73.2785 49.096 72.9425 49.096C72.8785 49.096 72.7825 49.076 72.6545 49.036C72.5185 49.004 72.4465 48.972 72.4385 48.94L72.7265 47.668C72.7665 47.7 72.9025 47.744 73.1345 47.8C73.3665 47.848 73.5225 47.868 73.6025 47.86C73.9785 47.044 74.3745 45.584 74.7905 43.48L74.8745 43.096L73.8545 42.904L73.9145 42.304H76.5545L77.3585 46.396L77.5265 47.5L77.9345 46.396L79.7825 42.304H81.3785L81.1985 47.704ZM84.7599 46.036C84.6799 46.692 84.6399 47.132 84.6399 47.356C84.6399 47.732 84.7039 47.992 84.8319 48.136C84.9599 48.28 85.1559 48.352 85.4199 48.352C85.7079 48.352 86.0039 48.252 86.3079 48.052C86.6119 47.844 86.8719 47.596 87.0879 47.308L87.7599 42.244H89.0079L88.2399 47.92L88.2279 48.052C88.2279 48.148 88.2439 48.224 88.2759 48.28C88.3159 48.328 88.3639 48.352 88.4199 48.352C88.5799 48.352 88.7839 48.232 89.0319 47.992L89.1879 48.316C89.0919 48.468 88.9119 48.64 88.6479 48.832C88.3839 49.016 88.0919 49.108 87.7719 49.108C87.5239 49.108 87.3359 49.044 87.2079 48.916C87.0799 48.788 87.0239 48.608 87.0399 48.376C87.0399 48.392 87.0519 48.256 87.0759 47.968L87.0639 47.956C86.4239 48.732 85.7039 49.12 84.9039 49.12C84.4479 49.12 84.0799 49 83.7999 48.76C83.5199 48.512 83.3759 48.108 83.3679 47.548C83.3679 47.172 83.4439 46.476 83.5959 45.46L83.9079 43.228L83.2719 42.88L83.3559 42.424L84.9879 42.196L85.2399 42.328L84.8319 45.508L84.7599 46.036ZM91.9669 46.036C91.8869 46.692 91.8469 47.132 91.8469 47.356C91.8469 47.732 91.9109 47.992 92.0389 48.136C92.1669 48.28 92.3629 48.352 92.6269 48.352C92.9149 48.352 93.2109 48.252 93.5149 48.052C93.8189 47.844 94.0789 47.596 94.2949 47.308L94.9669 42.244H96.2149L95.4469 47.92L95.4349 48.052C95.4349 48.148 95.4509 48.224 95.4829 48.28C95.5229 48.328 95.5709 48.352 95.6269 48.352C95.7869 48.352 95.9909 48.232 96.2389 47.992L96.3949 48.316C96.2989 48.468 96.1189 48.64 95.8549 48.832C95.5909 49.016 95.2989 49.108 94.9789 49.108C94.7309 49.108 94.5429 49.044 94.4149 48.916C94.2869 48.788 94.2309 48.608 94.2469 48.376C94.2469 48.392 94.2589 48.256 94.2829 47.968L94.2709 47.956C93.6309 48.732 92.9109 49.12 92.1109 49.12C91.6549 49.12 91.2869 49 91.0069 48.76C90.7269 48.512 90.5829 48.108 90.5749 47.548C90.5749 47.172 90.6509 46.476 90.8029 45.46L91.1149 43.228L90.4789 42.88L90.5629 42.424L92.1949 42.196L92.4469 42.328L92.0389 45.508L91.9669 46.036ZM103.822 49H100.078L99.8256 48.544C100.378 47.816 101.058 46.712 101.866 45.232C102.682 43.752 103.346 42.388 103.858 41.14H104.062L105.154 41.692C105.114 41.772 105.07 41.852 105.022 41.932C104.974 42.012 104.93 42.092 104.89 42.172C104.21 43.412 103.614 44.468 103.102 45.34C102.59 46.212 102.11 46.936 101.662 47.512C101.27 47.992 101.026 48.296 100.93 48.424L103.918 48.28L104.218 45.916L105.442 45.58L105.13 48.184L106.51 48.1L106.39 49H104.998L104.722 51.196H103.534L103.822 49ZM107.401 48.52C108.169 48.128 108.885 47.66 109.549 47.116C110.221 46.572 110.757 46 111.157 45.4C111.557 44.8 111.757 44.236 111.757 43.708C111.757 43.276 111.629 42.92 111.373 42.64C111.125 42.352 110.781 42.208 110.341 42.208C109.941 42.208 109.557 42.3 109.189 42.484C108.821 42.668 108.505 42.876 108.241 43.108L107.929 42.568C108.201 42.28 108.589 42.012 109.093 41.764C109.597 41.516 110.157 41.392 110.773 41.392C111.325 41.392 111.773 41.512 112.117 41.752C112.469 41.984 112.721 42.276 112.873 42.628C113.025 42.972 113.101 43.32 113.101 43.672C113.101 44.2 112.889 44.76 112.465 45.352C112.041 45.944 111.497 46.504 110.833 47.032C110.177 47.56 109.501 47.996 108.805 48.34L112.369 48.1L112.957 47.02L113.569 47.224L113.065 49H107.521L107.401 48.52Z" fill="#333333"/>
<path d="M19.984 58.196C20.512 58.196 20.972 58.316 21.364 58.556C21.756 58.796 22.056 59.136 22.264 59.576C22.472 60.008 22.576 60.504 22.576 61.064C22.576 62.032 22.352 62.964 21.904 63.86C21.464 64.756 20.856 65.524 20.08 66.164C19.304 66.812 18.436 67.264 17.476 67.52L17.272 66.98C17.832 66.796 18.368 66.508 18.88 66.116C19.4 65.724 19.844 65.272 20.212 64.76C20.588 64.248 20.86 63.728 21.028 63.2C20.796 63.448 20.504 63.66 20.152 63.836C19.808 64.004 19.404 64.088 18.94 64.088C18.468 64.088 18.064 63.976 17.728 63.752C17.4 63.52 17.156 63.216 16.996 62.84C16.836 62.464 16.756 62.052 16.756 61.604C16.756 61.036 16.888 60.492 17.152 59.972C17.424 59.444 17.804 59.016 18.292 58.688C18.78 58.36 19.344 58.196 19.984 58.196ZM19.864 58.808C19.464 58.808 19.124 58.94 18.844 59.204C18.564 59.46 18.352 59.784 18.208 60.176C18.072 60.568 18.004 60.96 18.004 61.352C18.004 61.992 18.124 62.48 18.364 62.816C18.604 63.152 18.92 63.32 19.312 63.32C20.04 63.32 20.652 63 21.148 62.36C21.26 61.912 21.316 61.436 21.316 60.932C21.316 60.284 21.196 59.768 20.956 59.384C20.716 59 20.352 58.808 19.864 58.808ZM24.1648 59.696C24.1648 59.416 24.2488 59.184 24.4168 59C24.5848 58.816 24.7848 58.724 25.0168 58.724C25.2408 58.724 25.4088 58.792 25.5208 58.928C25.6408 59.056 25.7008 59.22 25.7008 59.42C25.7008 59.708 25.6088 59.94 25.4248 60.116C25.2408 60.292 25.0288 60.38 24.7888 60.38C24.6128 60.38 24.4648 60.32 24.3448 60.2C24.2248 60.072 24.1648 59.904 24.1648 59.696ZM23.5168 64.436C23.5168 64.156 23.6008 63.924 23.7688 63.74C23.9368 63.556 24.1368 63.464 24.3688 63.464C24.5928 63.464 24.7608 63.532 24.8728 63.668C24.9928 63.796 25.0528 63.96 25.0528 64.16C25.0528 64.448 24.9608 64.68 24.7768 64.856C24.5928 65.032 24.3808 65.12 24.1408 65.12C23.9648 65.12 23.8168 65.06 23.6968 64.94C23.5768 64.812 23.5168 64.644 23.5168 64.436ZM29.7286 65.096C28.8406 65.096 28.1846 64.836 27.7606 64.316C27.3366 63.796 27.1246 63.132 27.1246 62.324C27.1246 61.548 27.2846 60.848 27.6046 60.224C27.9326 59.592 28.3726 59.096 28.9246 58.736C29.4846 58.376 30.1046 58.196 30.7846 58.196C31.6806 58.196 32.3366 58.448 32.7526 58.952C33.1686 59.456 33.3766 60.128 33.3766 60.968C33.3766 61.712 33.2166 62.4 32.8966 63.032C32.5846 63.664 32.1486 64.168 31.5886 64.544C31.0366 64.912 30.4166 65.096 29.7286 65.096ZM29.8366 64.52C30.3246 64.52 30.7326 64.344 31.0606 63.992C31.3966 63.64 31.6446 63.196 31.8046 62.66C31.9646 62.116 32.0446 61.564 32.0446 61.004C32.0446 60.308 31.9286 59.76 31.6966 59.36C31.4726 58.96 31.1166 58.76 30.6286 58.76C30.1246 58.76 29.7086 58.944 29.3806 59.312C29.0526 59.672 28.8126 60.124 28.6606 60.668C28.5086 61.204 28.4326 61.74 28.4326 62.276C28.4326 62.94 28.5446 63.48 28.7686 63.896C29.0006 64.312 29.3566 64.52 29.8366 64.52ZM37.2168 65.096C36.3288 65.096 35.6728 64.836 35.2488 64.316C34.8248 63.796 34.6128 63.132 34.6128 62.324C34.6128 61.548 34.7728 60.848 35.0928 60.224C35.4208 59.592 35.8608 59.096 36.4128 58.736C36.9728 58.376 37.5928 58.196 38.2728 58.196C39.1688 58.196 39.8248 58.448 40.2408 58.952C40.6568 59.456 40.8648 60.128 40.8648 60.968C40.8648 61.712 40.7048 62.4 40.3848 63.032C40.0728 63.664 39.6368 64.168 39.0768 64.544C38.5248 64.912 37.9048 65.096 37.2168 65.096ZM37.3248 64.52C37.8128 64.52 38.2208 64.344 38.5488 63.992C38.8848 63.64 39.1328 63.196 39.2928 62.66C39.4528 62.116 39.5328 61.564 39.5328 61.004C39.5328 60.308 39.4168 59.76 39.1848 59.36C38.9608 58.96 38.6048 58.76 38.1168 58.76C37.6128 58.76 37.1968 58.944 36.8688 59.312C36.5408 59.672 36.3008 60.124 36.1488 60.668C35.9968 61.204 35.9208 61.74 35.9208 62.276C35.9208 62.94 36.0328 63.48 36.2568 63.896C36.4888 64.312 36.8448 64.52 37.3248 64.52ZM49.4091 60.704L49.2651 61.592H42.7491L42.8931 60.704H49.4091ZM50.8343 64.52C51.6023 64.128 52.3183 63.66 52.9823 63.116C53.6543 62.572 54.1903 62 54.5903 61.4C54.9903 60.8 55.1903 60.236 55.1903 59.708C55.1903 59.276 55.0623 58.92 54.8063 58.64C54.5583 58.352 54.2143 58.208 53.7743 58.208C53.3743 58.208 52.9903 58.3 52.6223 58.484C52.2543 58.668 51.9383 58.876 51.6743 59.108L51.3623 58.568C51.6343 58.28 52.0223 58.012 52.5263 57.764C53.0303 57.516 53.5903 57.392 54.2063 57.392C54.7583 57.392 55.2063 57.512 55.5503 57.752C55.9023 57.984 56.1543 58.276 56.3063 58.628C56.4583 58.972 56.5343 59.32 56.5343 59.672C56.5343 60.2 56.3223 60.76 55.8983 61.352C55.4743 61.944 54.9303 62.504 54.2663 63.032C53.6103 63.56 52.9343 63.996 52.2383 64.34L55.8023 64.1L56.3903 63.02L57.0023 63.224L56.4983 65H50.9543L50.8343 64.52ZM58.8602 66.92C58.5562 66.92 58.1802 66.88 57.7322 66.8L57.8642 66.14C58.1282 66.188 58.3962 66.212 58.6682 66.212C59.2522 66.212 59.7882 66.092 60.2762 65.852C60.7642 65.612 61.1482 65.3 61.4282 64.916C61.7162 64.524 61.8602 64.112 61.8602 63.68C61.8602 63.24 61.7162 62.88 61.4282 62.6C61.1402 62.32 60.6962 62.192 60.0962 62.216C60.0082 62.248 59.8522 62.292 59.6282 62.348C59.4042 62.404 59.2602 62.44 59.1962 62.456L59.2922 61.796C60.0522 61.628 60.6802 61.348 61.1762 60.956C61.6722 60.556 61.9202 60.092 61.9202 59.564C61.9202 59.188 61.8242 58.876 61.6322 58.628C61.4482 58.38 61.1482 58.256 60.7322 58.256C60.3402 58.256 59.9882 58.324 59.6762 58.46C59.3722 58.588 59.0602 58.772 58.7402 59.012L58.4882 58.46C58.7362 58.204 59.1002 57.968 59.5802 57.752C60.0602 57.528 60.5882 57.416 61.1642 57.416C61.8042 57.416 62.3082 57.58 62.6762 57.908C63.0522 58.228 63.2402 58.672 63.2402 59.24C63.2402 59.744 63.0242 60.232 62.5922 60.704C62.1682 61.176 61.6682 61.528 61.0922 61.76C61.8042 61.712 62.3322 61.86 62.6762 62.204C63.0282 62.548 63.2042 62.992 63.2042 63.536C63.2042 64.136 62.9962 64.696 62.5802 65.216C62.1642 65.736 61.6202 66.148 60.9482 66.452C60.2762 66.764 59.5802 66.92 58.8602 66.92ZM64.9226 59.696C64.9226 59.416 65.0066 59.184 65.1746 59C65.3426 58.816 65.5426 58.724 65.7746 58.724C65.9986 58.724 66.1666 58.792 66.2786 58.928C66.3986 59.056 66.4586 59.22 66.4586 59.42C66.4586 59.708 66.3666 59.94 66.1826 60.116C65.9986 60.292 65.7866 60.38 65.5466 60.38C65.3706 60.38 65.2226 60.32 65.1026 60.2C64.9826 60.072 64.9226 59.904 64.9226 59.696ZM64.2746 64.436C64.2746 64.156 64.3586 63.924 64.5266 63.74C64.6946 63.556 64.8946 63.464 65.1266 63.464C65.3506 63.464 65.5186 63.532 65.6306 63.668C65.7506 63.796 65.8106 63.96 65.8106 64.16C65.8106 64.448 65.7186 64.68 65.5346 64.856C65.3506 65.032 65.1386 65.12 64.8986 65.12C64.7226 65.12 64.5746 65.06 64.4546 64.94C64.3346 64.812 64.2746 64.644 64.2746 64.436ZM70.4864 65.096C69.5984 65.096 68.9424 64.836 68.5184 64.316C68.0944 63.796 67.8824 63.132 67.8824 62.324C67.8824 61.548 68.0424 60.848 68.3624 60.224C68.6904 59.592 69.1304 59.096 69.6824 58.736C70.2424 58.376 70.8624 58.196 71.5424 58.196C72.4384 58.196 73.0944 58.448 73.5104 58.952C73.9264 59.456 74.1344 60.128 74.1344 60.968C74.1344 61.712 73.9744 62.4 73.6544 63.032C73.3424 63.664 72.9064 64.168 72.3464 64.544C71.7944 64.912 71.1744 65.096 70.4864 65.096ZM70.5944 64.52C71.0824 64.52 71.4904 64.344 71.8184 63.992C72.1544 63.64 72.4024 63.196 72.5624 62.66C72.7224 62.116 72.8024 61.564 72.8024 61.004C72.8024 60.308 72.6864 59.76 72.4544 59.36C72.2304 58.96 71.8744 58.76 71.3864 58.76C70.8824 58.76 70.4664 58.944 70.1384 59.312C69.8104 59.672 69.5704 60.124 69.4184 60.668C69.2664 61.204 69.1904 61.74 69.1904 62.276C69.1904 62.94 69.3024 63.48 69.5264 63.896C69.7584 64.312 70.1144 64.52 70.5944 64.52ZM77.9747 65.096C77.0867 65.096 76.4307 64.836 76.0067 64.316C75.5827 63.796 75.3707 63.132 75.3707 62.324C75.3707 61.548 75.5307 60.848 75.8507 60.224C76.1787 59.592 76.6187 59.096 77.1707 58.736C77.7307 58.376 78.3507 58.196 79.0307 58.196C79.9267 58.196 80.5827 58.448 80.9987 58.952C81.4147 59.456 81.6227 60.128 81.6227 60.968C81.6227 61.712 81.4627 62.4 81.1427 63.032C80.8307 63.664 80.3947 64.168 79.8347 64.544C79.2827 64.912 78.6627 65.096 77.9747 65.096ZM78.0827 64.52C78.5707 64.52 78.9787 64.344 79.3067 63.992C79.6427 63.64 79.8907 63.196 80.0507 62.66C80.2107 62.116 80.2907 61.564 80.2907 61.004C80.2907 60.308 80.1747 59.76 79.9427 59.36C79.7187 58.96 79.3627 58.76 78.8747 58.76C78.3707 58.76 77.9547 58.944 77.6267 59.312C77.2987 59.672 77.0587 60.124 76.9067 60.668C76.7547 61.204 76.6787 61.74 76.6787 62.276C76.6787 62.94 76.7907 63.48 77.0147 63.896C77.2467 64.312 77.6027 64.52 78.0827 64.52Z" fill="#333333" fill-opacity="0.8"/>
</svg>
