<svg width="74" height="74" viewBox="0 0 74 74" fill="none" xmlns="http://www.w3.org/2000/svg">
<path d="M36.9997 6.16699C30.4577 6.16699 24.1836 8.76579 19.5577 13.3917C14.9318 18.0176 12.333 24.2917 12.333 30.8337C12.333 47.4837 34.0705 66.292 34.9955 67.0937C35.554 67.5714 36.2648 67.8339 36.9997 67.8339C37.7346 67.8339 38.4453 67.5714 39.0038 67.0937C40.083 66.292 61.6663 47.4837 61.6663 30.8337C61.6663 24.2917 59.0675 18.0176 54.4416 13.3917C49.8157 8.76579 43.5417 6.16699 36.9997 6.16699ZM35.7966 36.8818C29.2291 30.7152 43.1663 44.656 43.1663 34.3577C43.1663 29.4512 29.1698 30.8771 32.6392 27.4076C36.1086 23.9382 32.0932 26.4732 36.9997 26.4732C41.9062 26.4732 33.5303 20.3168 36.9997 23.7863C40.4691 27.2557 18.4997 17.2062 18.4997 22.1127C18.4997 32.411 42.3641 30.746 35.7966 36.8818ZM36.9997 18.5003C34.5604 18.5003 32.1758 19.2237 30.1476 20.5789C28.1194 21.9341 26.5386 23.8603 25.6052 26.1139C24.6717 28.3675 24.4274 30.8473 24.9033 33.2398C25.3792 35.6322 26.5538 37.8298 28.2787 39.5546C30.0035 41.2795 32.2011 42.4541 34.5936 42.93C36.986 43.4059 39.4658 43.1617 41.7194 42.2282C43.9731 41.2947 45.8993 39.7139 47.2545 37.6857C48.6097 35.6575 49.333 33.273 49.333 30.8337C49.333 27.5627 48.0336 24.4256 45.7207 22.1127C43.4077 19.7997 40.2707 18.5003 36.9997 18.5003ZM36.9997 37.0003C35.78 37.0003 34.5878 36.6387 33.5737 35.9611C32.5596 35.2835 31.7692 34.3204 31.3024 33.1935C30.8357 32.0667 30.7136 30.8268 30.9515 29.6306C31.1894 28.4344 31.7768 27.3356 32.6392 26.4732C33.5016 25.6107 34.6004 25.0234 35.7966 24.7855C36.9928 24.5475 38.2327 24.6697 39.3596 25.1364C40.4864 25.6031 41.4495 26.3935 42.1271 27.4076C42.8047 28.4217 43.1663 29.614 43.1663 30.8337C43.1663 32.4692 42.5166 34.0377 41.3602 35.1942C40.2037 36.3506 38.6352 37.0003 36.9997 37.0003Z" fill="#132B5F"/>
<circle cx="37.0001" cy="31.714" r="10.5714" fill="white"/>
</svg>
